<svg xmlns="http://www.w3.org/2000/svg" xmlns:xlink="http://www.w3.org/1999/xlink" width="1920" zoomAndPan="magnify" viewBox="0 0 1440 809.999993" height="1080" preserveAspectRatio="xMidYMid meet" version="1.2"><defs><clipPath id="43ef9f4458"><path d="M 1258.851562 328.40625 L 1432 328.40625 L 1432 510.347656 L 1258.851562 510.347656 Z M 1258.851562 328.40625 "/></clipPath><clipPath id="c110001e78"><path d="M 7.394531 315 L 185 315 L 185 496.3125 L 7.394531 496.3125 Z M 7.394531 315 "/></clipPath><clipPath id="db1f9b1d71"><path d="M 213.488281 343.976562 L 1243.730469 343.976562 L 1243.730469 465.476562 L 213.488281 465.476562 Z M 213.488281 343.976562 "/></clipPath><clipPath id="79ee95da91"><path d="M 250.835938 343.976562 L 1206.085938 343.976562 C 1215.992188 343.976562 1225.492188 347.910156 1232.496094 354.917969 C 1239.5 361.917969 1243.433594 371.421875 1243.433594 381.324219 L 1243.433594 428.132812 C 1243.433594 438.035156 1239.5 447.53125 1232.496094 454.539062 C 1225.492188 461.542969 1215.992188 465.476562 1206.085938 465.476562 L 250.835938 465.476562 C 240.929688 465.476562 231.429688 461.542969 224.429688 454.539062 C 217.421875 447.53125 213.488281 438.035156 213.488281 428.132812 L 213.488281 381.324219 C 213.488281 371.421875 217.421875 361.917969 224.429688 354.917969 C 231.429688 347.910156 240.929688 343.976562 250.835938 343.976562 Z M 250.835938 343.976562 "/></clipPath></defs><g id="740e1abaf0"><g clip-rule="nonzero" clip-path="url(#43ef9f4458)"><path style=" stroke:none;fill-rule:evenodd;fill:#f5c83a;fill-opacity:1;" d="M 1258.882812 337.058594 C 1258.882812 332.28125 1262.757812 328.40625 1267.53125 328.40625 L 1423.234375 328.40625 C 1428.011719 328.40625 1431.882812 332.28125 1431.882812 337.058594 L 1431.882812 363.007812 C 1431.882812 365.53125 1430.777344 367.929688 1428.863281 369.574219 L 1371.332031 418.886719 L 1371.332031 484.105469 C 1371.332031 487.382812 1369.480469 490.378906 1366.550781 491.84375 L 1331.953125 509.144531 C 1329.292969 510.472656 1326.136719 510.34375 1323.59375 508.800781 C 1321.050781 507.257812 1319.480469 504.515625 1319.433594 501.542969 L 1318.144531 418.878906 L 1261.832031 369.511719 C 1259.957031 367.867188 1258.882812 365.5 1258.882812 363.007812 Z M 1276.183594 345.707031 L 1276.183594 359.085938 L 1332.433594 408.402344 C 1334.273438 410.011719 1335.34375 412.328125 1335.378906 414.773438 L 1336.515625 487.519531 L 1354.03125 478.761719 L 1354.03125 414.90625 C 1354.03125 412.382812 1355.136719 409.980469 1357.054688 408.339844 L 1414.582031 359.027344 L 1414.582031 345.707031 Z M 1276.183594 345.707031 "/></g><g clip-rule="nonzero" clip-path="url(#c110001e78)"><path style=" stroke:none;fill-rule:nonzero;fill:#f5c83a;fill-opacity:1;" d="M 175.515625 405.570312 L 183.261719 392.460938 C 184.511719 390.339844 184.898438 387.847656 184.355469 385.445312 C 183.808594 383.042969 182.375 380.960938 180.320312 379.589844 L 167.65625 371.144531 L 168.945312 355.972656 C 169.15625 353.515625 168.421875 351.101562 166.886719 349.175781 C 165.351562 347.246094 163.160156 345.996094 160.71875 345.652344 L 145.640625 343.53125 L 140.21875 329.300781 C 139.339844 327 137.632812 325.140625 135.414062 324.074219 C 133.191406 323 130.671875 322.824219 128.328125 323.582031 L 113.824219 328.210938 L 102.765625 317.746094 C 99.1875 314.355469 93.148438 314.355469 89.566406 317.746094 L 78.507812 328.210938 L 64.007812 323.578125 C 61.65625 322.828125 59.140625 323 56.921875 324.074219 C 54.703125 325.140625 52.996094 327 52.117188 329.308594 L 46.695312 343.53125 L 31.613281 345.652344 C 29.171875 346 26.984375 347.246094 25.449219 349.175781 C 23.910156 351.101562 23.179688 353.515625 23.390625 355.972656 L 24.679688 371.144531 L 12.015625 379.589844 C 9.960938 380.960938 8.527344 383.042969 7.980469 385.445312 C 7.4375 387.847656 7.824219 390.339844 9.074219 392.460938 L 16.820312 405.570312 L 9.074219 418.679688 C 7.824219 420.800781 7.4375 423.289062 7.984375 425.695312 C 8.53125 428.101562 9.960938 430.175781 12.015625 431.546875 L 24.679688 439.996094 L 23.390625 455.167969 C 23.179688 457.625 23.910156 460.039062 25.449219 461.96875 C 26.984375 463.890625 29.175781 465.144531 31.617188 465.488281 L 46.695312 467.609375 L 52.117188 481.835938 C 52.996094 484.140625 54.703125 485.996094 56.921875 487.066406 C 59.140625 488.136719 61.65625 488.3125 64.007812 487.558594 L 78.507812 482.929688 L 89.566406 493.390625 C 91.359375 495.085938 93.703125 496.023438 96.167969 496.023438 C 98.632812 496.023438 100.976562 495.085938 102.765625 493.394531 L 113.824219 482.929688 L 128.328125 487.5625 C 130.671875 488.308594 133.191406 488.136719 135.414062 487.066406 C 137.632812 485.996094 139.339844 484.140625 140.21875 481.835938 L 145.640625 467.609375 L 160.71875 465.488281 C 163.15625 465.144531 165.347656 463.890625 166.886719 461.964844 C 168.421875 460.039062 169.15625 457.625 168.945312 455.167969 L 167.65625 439.996094 L 180.320312 431.546875 C 182.375 430.175781 183.804688 428.101562 184.355469 425.695312 C 184.898438 423.289062 184.511719 420.800781 183.261719 418.675781 Z M 178.664062 424.402344 C 178.449219 425.34375 177.886719 426.15625 177.082031 426.691406 L 162.988281 436.097656 C 162.101562 436.6875 161.609375 437.714844 161.699219 438.773438 L 163.132812 455.664062 C 163.214844 456.625 162.925781 457.570312 162.324219 458.328125 C 161.722656 459.082031 160.859375 459.574219 159.902344 459.710938 L 143.121094 462.070312 C 142.070312 462.214844 141.179688 462.925781 140.800781 463.917969 L 134.765625 479.753906 C 134.421875 480.65625 133.75 481.386719 132.882812 481.804688 C 132.011719 482.226562 131.023438 482.296875 130.105469 482.003906 L 113.960938 476.84375 C 112.9375 476.519531 111.835938 476.777344 111.0625 477.503906 L 98.753906 489.15625 C 97.351562 490.484375 94.980469 490.488281 93.582031 489.15625 L 81.269531 477.503906 C 80.722656 476.984375 80 476.707031 79.265625 476.707031 C 78.96875 476.707031 78.667969 476.75 78.375 476.84375 L 62.234375 482 C 61.308594 482.296875 60.320312 482.226562 59.453125 481.804688 C 58.582031 481.386719 57.914062 480.65625 57.570312 479.757812 L 51.535156 463.921875 C 51.15625 462.925781 50.269531 462.214844 49.21875 462.070312 L 32.433594 459.710938 C 31.472656 459.574219 30.613281 459.082031 30.011719 458.328125 C 29.410156 457.570312 29.121094 456.625 29.203125 455.664062 L 30.636719 438.773438 C 30.726562 437.714844 30.234375 436.6875 29.347656 436.097656 L 15.253906 426.691406 C 14.449219 426.15625 13.886719 425.34375 13.671875 424.402344 C 13.457031 423.457031 13.609375 422.476562 14.101562 421.644531 L 22.71875 407.054688 C 23.257812 406.140625 23.257812 405 22.71875 404.085938 L 14.101562 389.496094 C 13.609375 388.660156 13.457031 387.683594 13.671875 386.738281 C 13.886719 385.796875 14.449219 384.984375 15.253906 384.445312 L 29.347656 375.042969 C 30.234375 374.453125 30.726562 373.425781 30.636719 372.367188 L 29.203125 355.476562 C 29.121094 354.515625 29.410156 353.566406 30.011719 352.808594 C 30.613281 352.058594 31.472656 351.566406 32.429688 351.429688 L 49.21875 349.070312 C 50.269531 348.921875 51.15625 348.214844 51.535156 347.21875 L 57.570312 331.386719 C 57.914062 330.480469 58.582031 329.753906 59.453125 329.332031 C 60.320312 328.914062 61.308594 328.84375 62.234375 329.136719 L 78.378906 334.292969 C 79.390625 334.617188 80.5 334.359375 81.269531 333.632812 L 93.582031 321.984375 C 93.582031 321.984375 93.582031 321.984375 93.582031 321.980469 C 94.980469 320.652344 97.351562 320.652344 98.753906 321.984375 L 111.0625 333.632812 C 111.835938 334.359375 112.949219 334.617188 113.957031 334.292969 L 130.101562 329.140625 C 131.027344 328.847656 132.011719 328.917969 132.882812 329.332031 C 133.75 329.753906 134.421875 330.480469 134.765625 331.386719 L 140.800781 347.222656 C 141.179688 348.214844 142.070312 348.921875 143.121094 349.070312 L 159.902344 351.429688 C 160.859375 351.566406 161.722656 352.058594 162.324219 352.808594 C 162.925781 353.566406 163.214844 354.515625 163.132812 355.476562 L 161.699219 372.367188 C 161.609375 373.425781 162.101562 374.453125 162.988281 375.042969 L 177.082031 384.445312 C 177.886719 384.984375 178.449219 385.796875 178.660156 386.738281 C 178.878906 387.683594 178.722656 388.660156 178.234375 389.492188 L 169.613281 404.085938 C 169.074219 405 169.074219 406.140625 169.613281 407.054688 L 178.234375 421.644531 C 178.722656 422.476562 178.878906 423.457031 178.664062 424.402344 Z M 178.664062 424.402344 "/></g><path style=" stroke:none;fill-rule:nonzero;fill:#f5c83a;fill-opacity:1;" d="M 129.117188 368.492188 L 59.089844 438.519531 C 57.949219 439.660156 57.949219 441.507812 59.089844 442.648438 C 59.660156 443.214844 60.40625 443.5 61.152344 443.5 C 61.898438 443.5 62.648438 443.214844 63.214844 442.648438 L 133.246094 372.617188 C 134.382812 371.480469 134.382812 369.632812 133.246094 368.492188 C 132.105469 367.351562 130.257812 367.351562 129.117188 368.492188 Z M 129.117188 368.492188 "/><path style=" stroke:none;fill-rule:nonzero;fill:#f5c83a;fill-opacity:1;" d="M 72.824219 396.816406 C 80.867188 396.816406 87.414062 390.269531 87.414062 382.226562 C 87.414062 374.183594 80.867188 367.636719 72.824219 367.636719 C 64.78125 367.636719 58.234375 374.183594 58.234375 382.226562 C 58.234375 390.269531 64.78125 396.816406 72.824219 396.816406 Z M 72.824219 373.472656 C 77.652344 373.472656 81.578125 377.398438 81.578125 382.226562 C 81.578125 387.054688 77.652344 390.980469 72.824219 390.980469 C 68 390.980469 64.070312 387.054688 64.070312 382.226562 C 64.070312 377.398438 68 373.472656 72.824219 373.472656 Z M 72.824219 373.472656 "/><path style=" stroke:none;fill-rule:nonzero;fill:#f5c83a;fill-opacity:1;" d="M 119.511719 414.324219 C 111.464844 414.324219 104.921875 420.867188 104.921875 428.914062 C 104.921875 436.957031 111.464844 443.5 119.511719 443.5 C 127.554688 443.5 134.097656 436.957031 134.097656 428.914062 C 134.097656 420.867188 127.554688 414.324219 119.511719 414.324219 Z M 119.511719 437.664062 C 114.683594 437.664062 110.757812 433.738281 110.757812 428.914062 C 110.757812 424.085938 114.683594 420.160156 119.511719 420.160156 C 124.335938 420.160156 128.261719 424.085938 128.261719 428.914062 C 128.261719 433.738281 124.335938 437.664062 119.511719 437.664062 Z M 119.511719 437.664062 "/><g clip-rule="nonzero" clip-path="url(#db1f9b1d71)"><g clip-rule="nonzero" clip-path="url(#79ee95da91)"><path style=" stroke:none;fill-rule:nonzero;fill:#f5c83a;fill-opacity:1;" d="M 213.488281 343.976562 L 1243.390625 343.976562 L 1243.390625 465.476562 L 213.488281 465.476562 Z M 213.488281 343.976562 "/></g></g><path style=" stroke:none;fill-rule:nonzero;fill:#b4585a;fill-opacity:1;" d="M 258.730469 403.65625 L 260.941406 403.65625 C 263.015625 403.65625 264.5625 403.253906 265.59375 402.4375 C 266.621094 401.613281 267.136719 400.421875 267.136719 398.851562 C 267.136719 397.277344 266.699219 396.113281 265.839844 395.359375 C 264.984375 394.609375 263.632812 394.230469 261.796875 394.230469 L 258.730469 394.230469 Z M 273.9375 398.625 C 273.9375 402.042969 272.871094 404.65625 270.734375 406.464844 C 268.601562 408.277344 265.554688 409.179688 261.613281 409.179688 L 258.730469 409.179688 L 258.730469 420.484375 L 251.984375 420.484375 L 251.984375 388.707031 L 262.144531 388.707031 C 266 388.707031 268.925781 389.539062 270.933594 391.195312 C 272.9375 392.851562 273.9375 395.328125 273.9375 398.625 Z M 273.9375 398.625 "/><path style=" stroke:none;fill-rule:nonzero;fill:#b4585a;fill-opacity:1;" d="M 289.488281 400.4375 C 288.074219 400.4375 286.972656 400.890625 286.179688 401.78125 C 285.386719 402.679688 284.925781 403.945312 284.804688 405.582031 L 294.113281 405.582031 C 294.082031 403.945312 293.652344 402.679688 292.828125 401.78125 C 292.007812 400.890625 290.890625 400.4375 289.488281 400.4375 Z M 290.417969 420.914062 C 286.503906 420.914062 283.441406 419.835938 281.234375 417.679688 C 279.039062 415.523438 277.941406 412.46875 277.941406 408.507812 C 277.941406 404.445312 278.953125 401.292969 280.992188 399.066406 C 283.023438 396.839844 285.84375 395.726562 289.441406 395.726562 C 292.867188 395.726562 295.539062 396.710938 297.453125 398.667969 C 299.375 400.621094 300.335938 403.324219 300.335938 406.769531 L 300.335938 409.988281 L 284.652344 409.988281 C 284.722656 411.875 285.28125 413.34375 286.332031 414.398438 C 287.375 415.457031 288.839844 415.984375 290.722656 415.984375 C 292.1875 415.984375 293.570312 415.832031 294.875 415.527344 C 296.175781 415.222656 297.535156 414.742188 298.964844 414.078125 L 298.964844 419.203125 C 297.804688 419.785156 296.558594 420.210938 295.242188 420.484375 C 293.929688 420.769531 292.320312 420.914062 290.417969 420.914062 Z M 290.417969 420.914062 "/><path style=" stroke:none;fill-rule:nonzero;fill:#b4585a;fill-opacity:1;" d="M 322.671875 413.269531 C 322.671875 415.765625 321.804688 417.660156 320.078125 418.960938 C 318.34375 420.265625 315.757812 420.914062 312.3125 420.914062 C 310.542969 420.914062 309.03125 420.789062 307.78125 420.546875 C 306.535156 420.3125 305.375 419.96875 304.285156 419.507812 L 304.285156 414.03125 C 305.515625 414.613281 306.902344 415.101562 308.453125 415.496094 C 309.996094 415.886719 311.355469 416.078125 312.523438 416.078125 C 314.925781 416.078125 316.125 415.382812 316.125 413.988281 C 316.125 413.46875 315.964844 413.046875 315.652344 412.71875 C 315.335938 412.394531 314.785156 412.027344 314.003906 411.605469 C 313.21875 411.191406 312.175781 410.707031 310.878906 410.15625 C 309.003906 409.375 307.628906 408.65625 306.742188 407.992188 C 305.867188 407.320312 305.230469 406.558594 304.835938 405.703125 C 304.4375 404.839844 304.242188 403.777344 304.242188 402.515625 C 304.242188 400.347656 305.070312 398.675781 306.742188 397.496094 C 308.421875 396.316406 310.792969 395.726562 313.867188 395.726562 C 316.796875 395.726562 319.640625 396.367188 322.410156 397.648438 L 320.414062 402.421875 C 319.191406 401.902344 318.050781 401.476562 316.996094 401.140625 C 315.933594 400.804688 314.859375 400.636719 313.761719 400.636719 C 311.808594 400.636719 310.832031 401.167969 310.832031 402.222656 C 310.832031 402.828125 311.144531 403.34375 311.777344 403.78125 C 312.40625 404.207031 313.785156 404.847656 315.910156 405.703125 C 317.8125 406.476562 319.207031 407.199219 320.09375 407.867188 C 320.976562 408.53125 321.625 409.300781 322.042969 410.171875 C 322.460938 411.039062 322.671875 412.070312 322.671875 413.269531 Z M 322.671875 413.269531 "/><path style=" stroke:none;fill-rule:nonzero;fill:#b4585a;fill-opacity:1;" d="M 337.917969 415.726562 C 339.59375 415.726562 340.824219 415.246094 341.609375 414.277344 C 342.390625 413.3125 342.816406 411.628906 342.890625 409.226562 L 342.890625 408.417969 C 342.890625 405.816406 342.484375 403.949219 341.683594 402.820312 C 340.878906 401.683594 339.585938 401.109375 337.808594 401.109375 C 334.6875 401.109375 333.125 403.5625 333.125 408.464844 C 333.125 410.898438 333.511719 412.714844 334.285156 413.925781 C 335.066406 415.128906 336.277344 415.726562 337.917969 415.726562 Z M 335.535156 420.914062 C 332.667969 420.914062 330.417969 419.8125 328.792969 417.601562 C 327.175781 415.398438 326.367188 412.320312 326.367188 408.371094 C 326.367188 404.40625 327.195312 401.308594 328.855469 399.082031 C 330.511719 396.847656 332.785156 395.726562 335.675781 395.726562 C 337.207031 395.726562 338.546875 396.015625 339.6875 396.59375 C 340.835938 397.175781 341.84375 398.074219 342.722656 399.296875 L 342.890625 399.296875 L 343.46875 396.183594 L 349.085938 396.183594 L 349.085938 431.179688 L 342.433594 431.179688 L 342.433594 420.988281 C 342.433594 420.105469 342.527344 418.882812 342.722656 417.328125 L 342.433594 417.328125 C 341.71875 418.511719 340.773438 419.402344 339.59375 420.011719 C 338.425781 420.613281 337.070312 420.914062 335.535156 420.914062 Z M 335.535156 420.914062 "/><path style=" stroke:none;fill-rule:nonzero;fill:#b4585a;fill-opacity:1;" d="M 373.226562 420.484375 L 372.34375 417.375 L 371.992188 417.375 C 371.277344 418.503906 370.269531 419.378906 368.96875 419.996094 C 367.667969 420.609375 366.183594 420.914062 364.515625 420.914062 C 361.65625 420.914062 359.5 420.148438 358.046875 418.625 C 356.601562 417.097656 355.878906 414.902344 355.878906 412.035156 L 355.878906 396.183594 L 362.515625 396.183594 L 362.515625 410.371094 C 362.515625 412.132812 362.828125 413.449219 363.449219 414.320312 C 364.078125 415.199219 365.070312 415.632812 366.421875 415.632812 C 368.285156 415.632812 369.625 415.019531 370.449219 413.789062 C 371.273438 412.546875 371.6875 410.492188 371.6875 407.625 L 371.6875 396.183594 L 378.324219 396.183594 L 378.324219 420.484375 Z M 373.226562 420.484375 "/><path style=" stroke:none;fill-rule:nonzero;fill:#b4585a;fill-opacity:1;" d="M 384.984375 389.898438 C 384.984375 387.742188 386.191406 386.664062 388.601562 386.664062 C 391 386.664062 392.203125 387.742188 392.203125 389.898438 C 392.203125 390.925781 391.898438 391.726562 391.300781 392.308594 C 390.699219 392.878906 389.796875 393.160156 388.601562 393.160156 C 386.191406 393.160156 384.984375 392.074219 384.984375 389.898438 Z M 391.910156 420.484375 L 385.273438 420.484375 L 385.273438 396.183594 L 391.910156 396.183594 Z M 391.910156 420.484375 "/><path style=" stroke:none;fill-rule:nonzero;fill:#b4585a;fill-opacity:1;" d="M 415.808594 413.269531 C 415.808594 415.765625 414.945312 417.660156 413.214844 418.960938 C 411.484375 420.265625 408.898438 420.914062 405.449219 420.914062 C 403.679688 420.914062 402.171875 420.789062 400.917969 420.546875 C 399.675781 420.3125 398.511719 419.96875 397.425781 419.507812 L 397.425781 414.03125 C 398.652344 414.613281 400.042969 415.101562 401.589844 415.496094 C 403.136719 415.886719 404.492188 416.078125 405.664062 416.078125 C 408.0625 416.078125 409.265625 415.382812 409.265625 413.988281 C 409.265625 413.46875 409.105469 413.046875 408.792969 412.71875 C 408.476562 412.394531 407.925781 412.027344 407.144531 411.605469 C 406.359375 411.191406 405.316406 410.707031 404.015625 410.15625 C 402.144531 409.375 400.765625 408.65625 399.882812 407.992188 C 399.003906 407.320312 398.371094 406.558594 397.976562 405.703125 C 397.578125 404.839844 397.378906 403.777344 397.378906 402.515625 C 397.378906 400.347656 398.210938 398.675781 399.882812 397.496094 C 401.558594 396.316406 403.933594 395.726562 407.007812 395.726562 C 409.9375 395.726562 412.78125 396.367188 415.550781 397.648438 L 413.550781 402.421875 C 412.332031 401.902344 411.191406 401.476562 410.132812 401.140625 C 409.074219 400.804688 408 400.636719 406.898438 400.636719 C 404.949219 400.636719 403.972656 401.167969 403.972656 402.222656 C 403.972656 402.828125 404.285156 403.34375 404.917969 403.78125 C 405.546875 404.207031 406.921875 404.847656 409.050781 405.703125 C 410.949219 406.476562 412.347656 407.199219 413.230469 407.867188 C 414.117188 408.53125 414.765625 409.300781 415.183594 410.171875 C 415.601562 411.039062 415.808594 412.070312 415.808594 413.269531 Z M 415.808594 413.269531 "/><path style=" stroke:none;fill-rule:nonzero;fill:#b4585a;fill-opacity:1;" d="M 431.058594 400.4375 C 429.640625 400.4375 428.539062 400.890625 427.746094 401.78125 C 426.953125 402.679688 426.496094 403.945312 426.371094 405.582031 L 435.679688 405.582031 C 435.648438 403.945312 435.222656 402.679688 434.398438 401.78125 C 433.574219 400.890625 432.460938 400.4375 431.058594 400.4375 Z M 431.988281 420.914062 C 428.070312 420.914062 425.007812 419.835938 422.804688 417.679688 C 420.605469 415.523438 419.507812 412.46875 419.507812 408.507812 C 419.507812 404.445312 420.523438 401.292969 422.558594 399.066406 C 424.59375 396.839844 427.410156 395.726562 431.011719 395.726562 C 434.4375 395.726562 437.105469 396.710938 439.019531 398.667969 C 440.941406 400.621094 441.902344 403.324219 441.902344 406.769531 L 441.902344 409.988281 L 426.21875 409.988281 C 426.289062 411.875 426.851562 413.34375 427.898438 414.398438 C 428.945312 415.457031 430.410156 415.984375 432.292969 415.984375 C 433.757812 415.984375 435.136719 415.832031 436.441406 415.527344 C 437.742188 415.222656 439.105469 414.742188 440.53125 414.078125 L 440.53125 419.203125 C 439.371094 419.785156 438.128906 420.210938 436.808594 420.484375 C 435.496094 420.769531 433.886719 420.914062 431.988281 420.914062 Z M 431.988281 420.914062 "/><path style=" stroke:none;fill-rule:nonzero;fill:#b4585a;fill-opacity:1;" d="M 474.292969 420.484375 L 473.007812 417.175781 L 472.828125 417.175781 C 471.707031 418.589844 470.558594 419.566406 469.378906 420.105469 C 468.195312 420.640625 466.664062 420.914062 464.769531 420.914062 C 462.429688 420.914062 460.589844 420.25 459.25 418.914062 C 457.914062 417.582031 457.25 415.6875 457.25 413.222656 C 457.25 410.640625 458.148438 408.738281 459.949219 407.519531 C 461.75 406.296875 464.46875 405.621094 468.113281 405.488281 L 472.324219 405.351562 L 472.324219 404.300781 C 472.324219 401.828125 471.0625 400.589844 468.539062 400.589844 C 466.605469 400.589844 464.328125 401.183594 461.703125 402.363281 L 459.507812 397.875 C 462.304688 396.410156 465.40625 395.679688 468.8125 395.679688 C 472.066406 395.679688 474.566406 396.390625 476.304688 397.816406 C 478.042969 399.242188 478.914062 401.398438 478.914062 404.300781 L 478.914062 420.484375 Z M 472.324219 409.226562 L 469.761719 409.316406 C 467.839844 409.371094 466.402344 409.714844 465.457031 410.355469 C 464.511719 410.996094 464.039062 411.96875 464.039062 413.269531 C 464.039062 415.140625 465.109375 416.078125 467.257812 416.078125 C 468.792969 416.078125 470.019531 415.632812 470.933594 414.75 C 471.859375 413.863281 472.324219 412.691406 472.324219 411.226562 Z M 472.324219 409.226562 "/><path style=" stroke:none;fill-rule:nonzero;fill:#b4585a;fill-opacity:1;" d="M 495.808594 415.726562 C 497.488281 415.726562 498.714844 415.246094 499.5 414.277344 C 500.28125 413.3125 500.710938 411.628906 500.78125 409.226562 L 500.78125 408.417969 C 500.78125 405.816406 500.378906 403.949219 499.578125 402.820312 C 498.773438 401.683594 497.480469 401.109375 495.703125 401.109375 C 492.578125 401.109375 491.019531 403.5625 491.019531 408.464844 C 491.019531 410.898438 491.402344 412.714844 492.179688 413.925781 C 492.960938 415.128906 494.167969 415.726562 495.808594 415.726562 Z M 493.429688 420.914062 C 490.5625 420.914062 488.308594 419.8125 486.6875 417.601562 C 485.070312 415.398438 484.261719 412.320312 484.261719 408.371094 C 484.261719 404.40625 485.085938 401.308594 486.746094 399.082031 C 488.402344 396.847656 490.675781 395.726562 493.566406 395.726562 C 495.097656 395.726562 496.4375 396.015625 497.578125 396.59375 C 498.726562 397.175781 499.738281 398.074219 500.613281 399.296875 L 500.78125 399.296875 L 501.363281 396.183594 L 506.976562 396.183594 L 506.976562 431.179688 L 500.324219 431.179688 L 500.324219 420.988281 C 500.324219 420.105469 500.421875 418.882812 500.613281 417.328125 L 500.324219 417.328125 C 499.613281 418.511719 498.664062 419.402344 497.488281 420.011719 C 496.316406 420.613281 494.960938 420.914062 493.429688 420.914062 Z M 493.429688 420.914062 "/><path style=" stroke:none;fill-rule:nonzero;fill:#b4585a;fill-opacity:1;" d="M 531.117188 420.484375 L 530.234375 417.375 L 529.882812 417.375 C 529.167969 418.503906 528.164062 419.378906 526.863281 419.996094 C 525.558594 420.609375 524.074219 420.914062 522.40625 420.914062 C 519.546875 420.914062 517.390625 420.148438 515.9375 418.625 C 514.492188 417.097656 513.773438 414.902344 513.773438 412.035156 L 513.773438 396.183594 L 520.410156 396.183594 L 520.410156 410.371094 C 520.410156 412.132812 520.71875 413.449219 521.339844 414.320312 C 521.96875 415.199219 522.960938 415.632812 524.316406 415.632812 C 526.175781 415.632812 527.519531 415.019531 528.34375 413.789062 C 529.164062 412.546875 529.578125 410.492188 529.578125 407.625 L 529.578125 396.183594 L 536.214844 396.183594 L 536.214844 420.484375 Z M 531.117188 420.484375 "/><path style=" stroke:none;fill-rule:nonzero;fill:#b4585a;fill-opacity:1;" d="M 542.875 389.898438 C 542.875 387.742188 544.082031 386.664062 546.492188 386.664062 C 548.890625 386.664062 550.09375 387.742188 550.09375 389.898438 C 550.09375 390.925781 549.792969 391.726562 549.191406 392.308594 C 548.589844 392.878906 547.691406 393.160156 546.492188 393.160156 C 544.082031 393.160156 542.875 392.074219 542.875 389.898438 Z M 549.804688 420.484375 L 543.167969 420.484375 L 543.167969 396.183594 L 549.804688 396.183594 Z M 549.804688 420.484375 "/><path style=" stroke:none;fill-rule:nonzero;fill:#b4585a;fill-opacity:1;" d="M 568.222656 386.664062 L 567.339844 394.65625 L 575.441406 392.398438 L 576.15625 397.875 L 568.773438 398.394531 L 573.625 404.863281 L 568.683594 407.488281 L 565.296875 400.683594 L 562.320312 407.441406 L 557.179688 404.863281 L 561.984375 398.394531 L 554.648438 397.832031 L 555.484375 392.398438 L 563.417969 394.65625 L 562.535156 386.664062 Z M 568.222656 386.664062 "/></g></svg>