<svg xmlns="http://www.w3.org/2000/svg" xmlns:xlink="http://www.w3.org/1999/xlink" width="1920" zoomAndPan="magnify" viewBox="0 0 1440 809.999993" height="1080" preserveAspectRatio="xMidYMid meet" version="1.2"><defs><clipPath id="b6f18d8d20"><path d="M 191.851562 342.222656 L 1247 342.222656 L 1247 466.660156 L 191.851562 466.660156 Z M 191.851562 342.222656 "/></clipPath><clipPath id="be6c5d1b42"><path d="M 230.101562 342.222656 L 1208.445312 342.222656 C 1218.589844 342.222656 1228.320312 346.25 1235.492188 353.425781 C 1242.664062 360.597656 1246.695312 370.328125 1246.695312 380.472656 L 1246.695312 428.410156 C 1246.695312 438.554688 1242.664062 448.28125 1235.492188 455.457031 C 1228.320312 462.628906 1218.589844 466.660156 1208.445312 466.660156 L 230.101562 466.660156 C 219.957031 466.660156 210.226562 462.628906 203.054688 455.457031 C 195.878906 448.28125 191.851562 438.554688 191.851562 428.410156 L 191.851562 380.472656 C 191.851562 370.328125 195.878906 360.597656 203.054688 353.425781 C 210.226562 346.25 219.957031 342.222656 230.101562 342.222656 Z M 230.101562 342.222656 "/></clipPath></defs><g id="3f5687d3da"><g clip-rule="nonzero" clip-path="url(#b6f18d8d20)"><g clip-rule="nonzero" clip-path="url(#be6c5d1b42)"><path style=" stroke:none;fill-rule:nonzero;fill:#f5c83a;fill-opacity:1;" d="M 191.851562 342.222656 L 1246.652344 342.222656 L 1246.652344 466.660156 L 191.851562 466.660156 Z M 191.851562 342.222656 "/></g></g><g style="fill:#b4585a;fill-opacity:1;"><g transform="translate(227.184986, 420.580037)"><path style="stroke:none" d="M 11 -17.234375 L 13.265625 -17.234375 C 15.390625 -17.234375 16.976562 -17.648438 18.03125 -18.484375 C 19.082031 -19.328125 19.609375 -20.550781 19.609375 -22.15625 C 19.609375 -23.769531 19.164062 -24.960938 18.28125 -25.734375 C 17.40625 -26.503906 16.023438 -26.890625 14.140625 -26.890625 L 11 -26.890625 Z M 26.578125 -22.390625 C 26.578125 -18.890625 25.484375 -16.210938 23.296875 -14.359375 C 21.109375 -12.503906 17.992188 -11.578125 13.953125 -11.578125 L 11 -11.578125 L 11 0 L 4.09375 0 L 4.09375 -32.546875 L 14.5 -32.546875 C 18.445312 -32.546875 21.445312 -31.695312 23.5 -30 C 25.550781 -28.300781 26.578125 -25.765625 26.578125 -22.390625 Z M 26.578125 -22.390625 "/></g><g transform="translate(255.81348, 420.580037)"><path style="stroke:none" d="M 13.875 -20.53125 C 12.425781 -20.53125 11.296875 -20.070312 10.484375 -19.15625 C 9.671875 -18.238281 9.203125 -16.941406 9.078125 -15.265625 L 18.609375 -15.265625 C 18.578125 -16.941406 18.140625 -18.238281 17.296875 -19.15625 C 16.453125 -20.070312 15.3125 -20.53125 13.875 -20.53125 Z M 14.828125 0.4375 C 10.816406 0.4375 7.679688 -0.664062 5.421875 -2.875 C 3.171875 -5.082031 2.046875 -8.210938 2.046875 -12.265625 C 2.046875 -16.429688 3.085938 -19.65625 5.171875 -21.9375 C 7.253906 -24.21875 10.140625 -25.359375 13.828125 -25.359375 C 17.335938 -25.359375 20.070312 -24.351562 22.03125 -22.34375 C 24 -20.34375 24.984375 -17.578125 24.984375 -14.046875 L 24.984375 -10.75 L 8.921875 -10.75 C 8.992188 -8.820312 9.566406 -7.316406 10.640625 -6.234375 C 11.710938 -5.148438 13.210938 -4.609375 15.140625 -4.609375 C 16.640625 -4.609375 18.054688 -4.765625 19.390625 -5.078125 C 20.722656 -5.390625 22.117188 -5.882812 23.578125 -6.5625 L 23.578125 -1.3125 C 22.390625 -0.71875 21.117188 -0.28125 19.765625 0 C 18.421875 0.289062 16.773438 0.4375 14.828125 0.4375 Z M 14.828125 0.4375 "/></g><g transform="translate(282.750087, 420.580037)"><path style="stroke:none" d="M 20.921875 -7.390625 C 20.921875 -4.835938 20.035156 -2.894531 18.265625 -1.5625 C 16.492188 -0.226562 13.84375 0.4375 10.3125 0.4375 C 8.5 0.4375 6.953125 0.3125 5.671875 0.0625 C 4.398438 -0.175781 3.207031 -0.53125 2.09375 -1 L 2.09375 -6.609375 C 3.351562 -6.015625 4.773438 -5.515625 6.359375 -5.109375 C 7.941406 -4.710938 9.332031 -4.515625 10.53125 -4.515625 C 12.988281 -4.515625 14.21875 -5.226562 14.21875 -6.65625 C 14.21875 -7.1875 14.054688 -7.617188 13.734375 -7.953125 C 13.410156 -8.285156 12.847656 -8.664062 12.046875 -9.09375 C 11.242188 -9.519531 10.175781 -10.015625 8.84375 -10.578125 C 6.925781 -11.378906 5.515625 -12.117188 4.609375 -12.796875 C 3.710938 -13.484375 3.0625 -14.265625 2.65625 -15.140625 C 2.25 -16.023438 2.046875 -17.113281 2.046875 -18.40625 C 2.046875 -20.625 2.898438 -22.335938 4.609375 -23.546875 C 6.328125 -24.753906 8.757812 -25.359375 11.90625 -25.359375 C 14.90625 -25.359375 17.820312 -24.703125 20.65625 -23.390625 L 18.609375 -18.5 C 17.359375 -19.03125 16.191406 -19.46875 15.109375 -19.8125 C 14.023438 -20.15625 12.921875 -20.328125 11.796875 -20.328125 C 9.796875 -20.328125 8.796875 -19.785156 8.796875 -18.703125 C 8.796875 -18.085938 9.117188 -17.554688 9.765625 -17.109375 C 10.410156 -16.671875 11.820312 -16.015625 14 -15.140625 C 15.945312 -14.347656 17.375 -13.609375 18.28125 -12.921875 C 19.1875 -12.242188 19.851562 -11.457031 20.28125 -10.5625 C 20.707031 -9.675781 20.921875 -8.617188 20.921875 -7.390625 Z M 20.921875 -7.390625 "/></g><g transform="translate(305.412456, 420.580037)"><path style="stroke:none" d="M 13.875 -4.875 C 15.59375 -4.875 16.851562 -5.367188 17.65625 -6.359375 C 18.457031 -7.347656 18.894531 -9.070312 18.96875 -11.53125 L 18.96875 -12.359375 C 18.96875 -15.023438 18.554688 -16.9375 17.734375 -18.09375 C 16.910156 -19.257812 15.585938 -19.84375 13.765625 -19.84375 C 10.566406 -19.84375 8.96875 -17.332031 8.96875 -12.3125 C 8.96875 -9.820312 9.363281 -7.957031 10.15625 -6.71875 C 10.957031 -5.488281 12.195312 -4.875 13.875 -4.875 Z M 11.4375 0.4375 C 8.5 0.4375 6.195312 -0.691406 4.53125 -2.953125 C 2.875 -5.210938 2.046875 -8.363281 2.046875 -12.40625 C 2.046875 -16.46875 2.894531 -19.640625 4.59375 -21.921875 C 6.289062 -24.210938 8.617188 -25.359375 11.578125 -25.359375 C 13.148438 -25.359375 14.519531 -25.0625 15.6875 -24.46875 C 16.863281 -23.875 17.898438 -22.953125 18.796875 -21.703125 L 18.96875 -21.703125 L 19.5625 -24.890625 L 25.3125 -24.890625 L 25.3125 10.953125 L 18.5 10.953125 L 18.5 0.515625 C 18.5 -0.390625 18.597656 -1.640625 18.796875 -3.234375 L 18.5 -3.234375 C 17.769531 -2.023438 16.800781 -1.109375 15.59375 -0.484375 C 14.394531 0.128906 13.007812 0.4375 11.4375 0.4375 Z M 11.4375 0.4375 "/></g><g transform="translate(334.263567, 420.580037)"><path style="stroke:none" d="M 21.1875 0 L 20.28125 -3.1875 L 19.921875 -3.1875 C 19.191406 -2.03125 18.160156 -1.132812 16.828125 -0.5 C 15.492188 0.125 13.972656 0.4375 12.265625 0.4375 C 9.335938 0.4375 7.128906 -0.34375 5.640625 -1.90625 C 4.160156 -3.46875 3.421875 -5.71875 3.421875 -8.65625 L 3.421875 -24.890625 L 10.21875 -24.890625 L 10.21875 -10.359375 C 10.21875 -8.554688 10.535156 -7.207031 11.171875 -6.3125 C 11.816406 -5.414062 12.832031 -4.96875 14.21875 -4.96875 C 16.125 -4.96875 17.5 -5.597656 18.34375 -6.859375 C 19.1875 -8.128906 19.609375 -10.234375 19.609375 -13.171875 L 19.609375 -24.890625 L 26.40625 -24.890625 L 26.40625 0 Z M 21.1875 0 "/></g><g transform="translate(364.22776, 420.580037)"><path style="stroke:none" d="M 3.265625 -31.328125 C 3.265625 -33.535156 4.5 -34.640625 6.96875 -34.640625 C 9.425781 -34.640625 10.65625 -33.535156 10.65625 -31.328125 C 10.65625 -30.273438 10.347656 -29.453125 9.734375 -28.859375 C 9.117188 -28.273438 8.195312 -27.984375 6.96875 -27.984375 C 4.5 -27.984375 3.265625 -29.097656 3.265625 -31.328125 Z M 10.359375 0 L 3.5625 0 L 3.5625 -24.890625 L 10.359375 -24.890625 Z M 10.359375 0 "/></g><g transform="translate(378.141297, 420.580037)"><path style="stroke:none" d="M 20.921875 -7.390625 C 20.921875 -4.835938 20.035156 -2.894531 18.265625 -1.5625 C 16.492188 -0.226562 13.84375 0.4375 10.3125 0.4375 C 8.5 0.4375 6.953125 0.3125 5.671875 0.0625 C 4.398438 -0.175781 3.207031 -0.53125 2.09375 -1 L 2.09375 -6.609375 C 3.351562 -6.015625 4.773438 -5.515625 6.359375 -5.109375 C 7.941406 -4.710938 9.332031 -4.515625 10.53125 -4.515625 C 12.988281 -4.515625 14.21875 -5.226562 14.21875 -6.65625 C 14.21875 -7.1875 14.054688 -7.617188 13.734375 -7.953125 C 13.410156 -8.285156 12.847656 -8.664062 12.046875 -9.09375 C 11.242188 -9.519531 10.175781 -10.015625 8.84375 -10.578125 C 6.925781 -11.378906 5.515625 -12.117188 4.609375 -12.796875 C 3.710938 -13.484375 3.0625 -14.265625 2.65625 -15.140625 C 2.25 -16.023438 2.046875 -17.113281 2.046875 -18.40625 C 2.046875 -20.625 2.898438 -22.335938 4.609375 -23.546875 C 6.328125 -24.753906 8.757812 -25.359375 11.90625 -25.359375 C 14.90625 -25.359375 17.820312 -24.703125 20.65625 -23.390625 L 18.609375 -18.5 C 17.359375 -19.03125 16.191406 -19.46875 15.109375 -19.8125 C 14.023438 -20.15625 12.921875 -20.328125 11.796875 -20.328125 C 9.796875 -20.328125 8.796875 -19.785156 8.796875 -18.703125 C 8.796875 -18.085938 9.117188 -17.554688 9.765625 -17.109375 C 10.410156 -16.671875 11.820312 -16.015625 14 -15.140625 C 15.945312 -14.347656 17.375 -13.609375 18.28125 -12.921875 C 19.1875 -12.242188 19.851562 -11.457031 20.28125 -10.5625 C 20.707031 -9.675781 20.921875 -8.617188 20.921875 -7.390625 Z M 20.921875 -7.390625 "/></g><g transform="translate(400.803666, 420.580037)"><path style="stroke:none" d="M 13.875 -20.53125 C 12.425781 -20.53125 11.296875 -20.070312 10.484375 -19.15625 C 9.671875 -18.238281 9.203125 -16.941406 9.078125 -15.265625 L 18.609375 -15.265625 C 18.578125 -16.941406 18.140625 -18.238281 17.296875 -19.15625 C 16.453125 -20.070312 15.3125 -20.53125 13.875 -20.53125 Z M 14.828125 0.4375 C 10.816406 0.4375 7.679688 -0.664062 5.421875 -2.875 C 3.171875 -5.082031 2.046875 -8.210938 2.046875 -12.265625 C 2.046875 -16.429688 3.085938 -19.65625 5.171875 -21.9375 C 7.253906 -24.21875 10.140625 -25.359375 13.828125 -25.359375 C 17.335938 -25.359375 20.070312 -24.351562 22.03125 -22.34375 C 24 -20.34375 24.984375 -17.578125 24.984375 -14.046875 L 24.984375 -10.75 L 8.921875 -10.75 C 8.992188 -8.820312 9.566406 -7.316406 10.640625 -6.234375 C 11.710938 -5.148438 13.210938 -4.609375 15.140625 -4.609375 C 16.640625 -4.609375 18.054688 -4.765625 19.390625 -5.078125 C 20.722656 -5.390625 22.117188 -5.882812 23.578125 -6.5625 L 23.578125 -1.3125 C 22.390625 -0.71875 21.117188 -0.28125 19.765625 0 C 18.421875 0.289062 16.773438 0.4375 14.828125 0.4375 Z M 14.828125 0.4375 "/></g><g transform="translate(427.740273, 420.580037)"><path style="stroke:none" d=""/></g><g transform="translate(439.583476, 420.580037)"><path style="stroke:none" d="M 19.375 0 L 18.0625 -3.390625 L 17.875 -3.390625 C 16.726562 -1.941406 15.550781 -0.941406 14.34375 -0.390625 C 13.132812 0.160156 11.5625 0.4375 9.625 0.4375 C 7.226562 0.4375 5.34375 -0.242188 3.96875 -1.609375 C 2.601562 -2.972656 1.921875 -4.914062 1.921875 -7.4375 C 1.921875 -10.082031 2.84375 -12.03125 4.6875 -13.28125 C 6.53125 -14.53125 9.316406 -15.222656 13.046875 -15.359375 L 17.359375 -15.5 L 17.359375 -16.578125 C 17.359375 -19.109375 16.066406 -20.375 13.484375 -20.375 C 11.503906 -20.375 9.171875 -19.769531 6.484375 -18.5625 L 4.234375 -23.15625 C 7.097656 -24.65625 10.273438 -25.40625 13.765625 -25.40625 C 17.097656 -25.40625 19.65625 -24.675781 21.4375 -23.21875 C 23.21875 -21.757812 24.109375 -19.546875 24.109375 -16.578125 L 24.109375 0 Z M 17.359375 -11.53125 L 14.734375 -11.4375 C 12.765625 -11.382812 11.296875 -11.03125 10.328125 -10.375 C 9.359375 -9.71875 8.875 -8.722656 8.875 -7.390625 C 8.875 -5.472656 9.972656 -4.515625 12.171875 -4.515625 C 13.742188 -4.515625 15 -4.96875 15.9375 -5.875 C 16.882812 -6.78125 17.359375 -7.984375 17.359375 -9.484375 Z M 17.359375 -11.53125 "/></g><g transform="translate(467.121149, 420.580037)"><path style="stroke:none" d="M 13.875 -4.875 C 15.59375 -4.875 16.851562 -5.367188 17.65625 -6.359375 C 18.457031 -7.347656 18.894531 -9.070312 18.96875 -11.53125 L 18.96875 -12.359375 C 18.96875 -15.023438 18.554688 -16.9375 17.734375 -18.09375 C 16.910156 -19.257812 15.585938 -19.84375 13.765625 -19.84375 C 10.566406 -19.84375 8.96875 -17.332031 8.96875 -12.3125 C 8.96875 -9.820312 9.363281 -7.957031 10.15625 -6.71875 C 10.957031 -5.488281 12.195312 -4.875 13.875 -4.875 Z M 11.4375 0.4375 C 8.5 0.4375 6.195312 -0.691406 4.53125 -2.953125 C 2.875 -5.210938 2.046875 -8.363281 2.046875 -12.40625 C 2.046875 -16.46875 2.894531 -19.640625 4.59375 -21.921875 C 6.289062 -24.210938 8.617188 -25.359375 11.578125 -25.359375 C 13.148438 -25.359375 14.519531 -25.0625 15.6875 -24.46875 C 16.863281 -23.875 17.898438 -22.953125 18.796875 -21.703125 L 18.96875 -21.703125 L 19.5625 -24.890625 L 25.3125 -24.890625 L 25.3125 10.953125 L 18.5 10.953125 L 18.5 0.515625 C 18.5 -0.390625 18.597656 -1.640625 18.796875 -3.234375 L 18.5 -3.234375 C 17.769531 -2.023438 16.800781 -1.109375 15.59375 -0.484375 C 14.394531 0.128906 13.007812 0.4375 11.4375 0.4375 Z M 11.4375 0.4375 "/></g><g transform="translate(495.972259, 420.580037)"><path style="stroke:none" d="M 21.1875 0 L 20.28125 -3.1875 L 19.921875 -3.1875 C 19.191406 -2.03125 18.160156 -1.132812 16.828125 -0.5 C 15.492188 0.125 13.972656 0.4375 12.265625 0.4375 C 9.335938 0.4375 7.128906 -0.34375 5.640625 -1.90625 C 4.160156 -3.46875 3.421875 -5.71875 3.421875 -8.65625 L 3.421875 -24.890625 L 10.21875 -24.890625 L 10.21875 -10.359375 C 10.21875 -8.554688 10.535156 -7.207031 11.171875 -6.3125 C 11.816406 -5.414062 12.832031 -4.96875 14.21875 -4.96875 C 16.125 -4.96875 17.5 -5.597656 18.34375 -6.859375 C 19.1875 -8.128906 19.609375 -10.234375 19.609375 -13.171875 L 19.609375 -24.890625 L 26.40625 -24.890625 L 26.40625 0 Z M 21.1875 0 "/></g><g transform="translate(525.936452, 420.580037)"><path style="stroke:none" d="M 3.265625 -31.328125 C 3.265625 -33.535156 4.5 -34.640625 6.96875 -34.640625 C 9.425781 -34.640625 10.65625 -33.535156 10.65625 -31.328125 C 10.65625 -30.273438 10.347656 -29.453125 9.734375 -28.859375 C 9.117188 -28.273438 8.195312 -27.984375 6.96875 -27.984375 C 4.5 -27.984375 3.265625 -29.097656 3.265625 -31.328125 Z M 10.359375 0 L 3.5625 0 L 3.5625 -24.890625 L 10.359375 -24.890625 Z M 10.359375 0 "/></g><g transform="translate(539.849989, 420.580037)"><path style="stroke:none" d="M 15.3125 -34.640625 L 14.40625 -26.453125 L 22.703125 -28.765625 L 23.4375 -23.15625 L 15.875 -22.625 L 20.84375 -16 L 15.78125 -13.3125 L 12.3125 -20.28125 L 9.265625 -13.359375 L 4 -16 L 8.921875 -22.625 L 1.40625 -23.203125 L 2.265625 -28.765625 L 10.390625 -26.453125 L 9.484375 -34.640625 Z M 15.3125 -34.640625 "/></g></g></g></svg>