<svg xmlns="http://www.w3.org/2000/svg" xmlns:xlink="http://www.w3.org/1999/xlink" width="1920" zoomAndPan="magnify" viewBox="0 0 1440 809.999993" height="1080" preserveAspectRatio="xMidYMid meet" version="1.2"><defs><clipPath id="10b0d12717"><path d="M 879 616 L 1057 616 L 1057 794.492188 L 879 794.492188 Z M 879 616 "/></clipPath><clipPath id="2b051ec23a"><path d="M 524 616 L 702 616 L 702 794.492188 L 524 794.492188 Z M 524 616 "/></clipPath><clipPath id="6322fc31bc"><path d="M 311.839844 14.355469 L 1057 14.355469 L 1057 582 L 311.839844 582 Z M 311.839844 14.355469 "/></clipPath><clipPath id="70b1e0fb01"><path d="M 453 120 L 1127.546875 120 L 1127.546875 440 L 453 440 Z M 453 120 "/></clipPath><clipPath id="052a73cb99"><path d="M 879 616 L 1057 616 L 1057 794.492188 L 879 794.492188 Z M 879 616 "/></clipPath><clipPath id="d0e2c3b88b"><path d="M 524 616 L 702 616 L 702 794.492188 L 524 794.492188 Z M 524 616 "/></clipPath><clipPath id="c5b7977e8b"><path d="M 311.839844 14.355469 L 1057 14.355469 L 1057 582 L 311.839844 582 Z M 311.839844 14.355469 "/></clipPath><clipPath id="e8f29a3aa0"><path d="M 453 120 L 1127.546875 120 L 1127.546875 440 L 453 440 Z M 453 120 "/></clipPath></defs><g id="0474b3eecf"><g clip-rule="nonzero" clip-path="url(#10b0d12717)"><path style=" stroke:none;fill-rule:nonzero;fill:#f5c83a;fill-opacity:1;" d="M 967.742188 794.207031 C 918.894531 794.207031 879.121094 754.4375 879.121094 705.589844 C 879.121094 656.742188 918.894531 616.96875 967.742188 616.96875 C 1016.585938 616.96875 1056.359375 656.742188 1056.359375 705.589844 C 1056.359375 754.4375 1016.585938 794.207031 967.742188 794.207031 Z M 967.742188 652.417969 C 938.425781 652.417969 914.570312 676.273438 914.570312 705.589844 C 914.570312 734.90625 938.425781 758.761719 967.742188 758.761719 C 997.054688 758.761719 1020.914062 734.90625 1020.914062 705.589844 C 1020.914062 676.273438 997.054688 652.417969 967.742188 652.417969 Z M 967.742188 652.417969 "/></g><g clip-rule="nonzero" clip-path="url(#2b051ec23a)"><path style=" stroke:none;fill-rule:nonzero;fill:#f5c83a;fill-opacity:1;" d="M 613.261719 794.207031 C 564.414062 794.207031 524.640625 754.4375 524.640625 705.589844 C 524.640625 656.742188 564.414062 616.96875 613.261719 616.96875 C 662.109375 616.96875 701.882812 656.742188 701.882812 705.589844 C 701.882812 754.4375 662.109375 794.207031 613.261719 794.207031 Z M 613.261719 652.417969 C 583.945312 652.417969 560.089844 676.273438 560.089844 705.589844 C 560.089844 734.90625 583.945312 758.761719 613.261719 758.761719 C 642.578125 758.761719 666.433594 734.90625 666.433594 705.589844 C 666.433594 676.273438 642.578125 652.417969 613.261719 652.417969 Z M 613.261719 652.417969 "/></g><g clip-rule="nonzero" clip-path="url(#6322fc31bc)"><path style=" stroke:none;fill-rule:nonzero;fill:#f5c83a;fill-opacity:1;" d="M 1038.636719 581.519531 L 629.53125 581.519531 C 570.617188 581.519531 519.429688 539.585938 507.875 481.804688 L 421.488281 49.804688 L 329.679688 49.804688 C 319.894531 49.804688 311.953125 41.863281 311.953125 32.078125 C 311.953125 22.296875 319.894531 14.355469 329.679688 14.355469 L 436.023438 14.355469 C 444.457031 14.355469 451.726562 20.308594 453.390625 28.605469 L 542.648438 474.824219 C 550.910156 516.121094 587.457031 546.074219 629.53125 546.074219 L 1038.636719 546.074219 C 1048.417969 546.074219 1056.359375 554.015625 1056.359375 563.796875 C 1056.359375 573.582031 1048.417969 581.519531 1038.636719 581.519531 Z M 1038.636719 581.519531 "/></g><g clip-rule="nonzero" clip-path="url(#70b1e0fb01)"><path style=" stroke:none;fill-rule:nonzero;fill:#f5c83a;fill-opacity:1;" d="M 1011.484375 439.730469 L 524.640625 439.730469 C 514.859375 439.730469 506.917969 431.789062 506.917969 422.003906 C 506.917969 412.222656 514.859375 404.28125 524.640625 404.28125 L 1011.484375 404.28125 C 1038.246094 404.28125 1060.933594 384.253906 1064.265625 357.703125 L 1089.46875 156.148438 L 471.46875 156.148438 C 461.6875 156.148438 453.746094 148.207031 453.746094 138.421875 C 453.746094 128.640625 461.6875 120.699219 471.46875 120.699219 L 1109.53125 120.699219 C 1114.636719 120.699219 1119.457031 122.898438 1122.824219 126.6875 C 1126.191406 130.480469 1127.753906 135.585938 1127.113281 140.621094 L 1099.429688 362.097656 C 1093.898438 406.375 1056.078125 439.730469 1011.484375 439.730469 Z M 1011.484375 439.730469 "/></g><g clip-rule="nonzero" clip-path="url(#052a73cb99)"><path style=" stroke:none;fill-rule:nonzero;fill:#f5c83a;fill-opacity:1;" d="M 967.742188 794.207031 C 918.894531 794.207031 879.121094 754.4375 879.121094 705.589844 C 879.121094 656.742188 918.894531 616.96875 967.742188 616.96875 C 1016.585938 616.96875 1056.359375 656.742188 1056.359375 705.589844 C 1056.359375 754.4375 1016.585938 794.207031 967.742188 794.207031 Z M 967.742188 652.417969 C 938.425781 652.417969 914.570312 676.273438 914.570312 705.589844 C 914.570312 734.90625 938.425781 758.761719 967.742188 758.761719 C 997.054688 758.761719 1020.914062 734.90625 1020.914062 705.589844 C 1020.914062 676.273438 997.054688 652.417969 967.742188 652.417969 Z M 967.742188 652.417969 "/></g><g clip-rule="nonzero" clip-path="url(#d0e2c3b88b)"><path style=" stroke:none;fill-rule:nonzero;fill:#f5c83a;fill-opacity:1;" d="M 613.261719 794.207031 C 564.414062 794.207031 524.640625 754.4375 524.640625 705.589844 C 524.640625 656.742188 564.414062 616.96875 613.261719 616.96875 C 662.109375 616.96875 701.882812 656.742188 701.882812 705.589844 C 701.882812 754.4375 662.109375 794.207031 613.261719 794.207031 Z M 613.261719 652.417969 C 583.945312 652.417969 560.089844 676.273438 560.089844 705.589844 C 560.089844 734.90625 583.945312 758.761719 613.261719 758.761719 C 642.578125 758.761719 666.433594 734.90625 666.433594 705.589844 C 666.433594 676.273438 642.578125 652.417969 613.261719 652.417969 Z M 613.261719 652.417969 "/></g><g clip-rule="nonzero" clip-path="url(#c5b7977e8b)"><path style=" stroke:none;fill-rule:nonzero;fill:#f5c83a;fill-opacity:1;" d="M 1038.636719 581.519531 L 629.53125 581.519531 C 570.617188 581.519531 519.429688 539.585938 507.875 481.804688 L 421.488281 49.804688 L 329.679688 49.804688 C 319.894531 49.804688 311.953125 41.863281 311.953125 32.078125 C 311.953125 22.296875 319.894531 14.355469 329.679688 14.355469 L 436.023438 14.355469 C 444.457031 14.355469 451.726562 20.308594 453.390625 28.605469 L 542.648438 474.824219 C 550.910156 516.121094 587.457031 546.074219 629.53125 546.074219 L 1038.636719 546.074219 C 1048.417969 546.074219 1056.359375 554.015625 1056.359375 563.796875 C 1056.359375 573.582031 1048.417969 581.519531 1038.636719 581.519531 Z M 1038.636719 581.519531 "/></g><g clip-rule="nonzero" clip-path="url(#e8f29a3aa0)"><path style=" stroke:none;fill-rule:nonzero;fill:#f5c83a;fill-opacity:1;" d="M 1011.484375 439.730469 L 524.640625 439.730469 C 514.859375 439.730469 506.917969 431.789062 506.917969 422.003906 C 506.917969 412.222656 514.859375 404.28125 524.640625 404.28125 L 1011.484375 404.28125 C 1038.246094 404.28125 1060.933594 384.253906 1064.265625 357.703125 L 1089.46875 156.148438 L 471.46875 156.148438 C 461.6875 156.148438 453.746094 148.207031 453.746094 138.421875 C 453.746094 128.640625 461.6875 120.699219 471.46875 120.699219 L 1109.53125 120.699219 C 1114.636719 120.699219 1119.457031 122.898438 1122.824219 126.6875 C 1126.191406 130.480469 1127.753906 135.585938 1127.113281 140.621094 L 1099.429688 362.097656 C 1093.898438 406.375 1056.078125 439.730469 1011.484375 439.730469 Z M 1011.484375 439.730469 "/></g></g></svg>